HIERARCHY
ROOT Hips
{
	OFFSET 0.000000 0.000000 0.000000
	CHANNELS 6 Xposition Yposition Zposition Xrotation Yrotation Zrotation
	JOINT LeftUpLeg_virtual
	{
		OFFSET 0.000000 0.000000 0.000000
		CHANNELS 3 Xrotation Yrotation Zrotation
		JOINT LeftUpLeg
		{
			OFFSET 11.394100 -6.187798 -0.413800
			CHANNELS 3 Xrotation Yrotation Zrotation
			JOINT LeftLeg
			{
				OFFSET 0.430247 -32.302673 3.732800
				CHANNELS 3 Xrotation Yrotation Zrotation
				JOINT LeftFoot
				{
					OFFSET -0.430247 -48.264931 -6.423300
					CHANNELS 3 Xrotation Yrotation Zrotation
					JOINT LeftToeBase
					{
						OFFSET 4.230900 -16.068199 23.438400
						CHANNELS 3 Xrotation Yrotation Zrotation
						JOINT LeftToe_End
						{
							OFFSET 4.510700 0.695400 19.974600
							CHANNELS 3 Xrotation Yrotation Zrotation
							End Site
							{
								OFFSET 0 0 0
							}
						}
					}
				}
			}
		}
	}
	JOINT RightUpLeg_virtual
	{
		OFFSET 0.000000 0.000000 0.000000
		CHANNELS 3 Xrotation Yrotation Zrotation
		JOINT RightUpLeg
		{
			OFFSET -11.333700 -6.187798 -0.413800
			CHANNELS 3 Xrotation Yrotation Zrotation
			JOINT RightLeg
			{
				OFFSET -0.430392 -32.302628 3.733000
				CHANNELS 3 Xrotation Yrotation Zrotation
				JOINT RightFoot
				{
					OFFSET 0.430392 -48.264973 -6.423500
					CHANNELS 3 Xrotation Yrotation Zrotation
					JOINT RightToeBase
					{
						OFFSET -4.230900 -16.068199 23.438400
						CHANNELS 3 Xrotation Yrotation Zrotation
						JOINT RightToe_End
						{
							OFFSET -4.510700 0.695400 19.974600
							CHANNELS 3 Xrotation Yrotation Zrotation
							End Site
							{
								OFFSET 0 0 0
							}
						}
					}
				}
			}
		}
	}
	JOINT Spine_virtual
	{
		OFFSET 0.000000 0.000000 0.000000
		CHANNELS 3 Xrotation Yrotation Zrotation
		JOINT Spine
		{
			OFFSET -0.002400 12.777504 0.315300
			CHANNELS 3 Xrotation Yrotation Zrotation
			JOINT Spine1
			{
				OFFSET -0.002067 5.816869 0.032633
				CHANNELS 3 Xrotation Yrotation Zrotation
				JOINT Spine1_split
				{
					OFFSET -0.002067 5.816869 0.032633
					CHANNELS 3 Xrotation Yrotation Zrotation
					JOINT Spine2
					{
						OFFSET -0.002067 5.816869 0.032633
						CHANNELS 3 Xrotation Yrotation Zrotation
						JOINT Neck_virtual
						{
							OFFSET 0.000000 0.000000 0.000000
							CHANNELS 3 Xrotation Yrotation Zrotation
							JOINT Neck
							{
								OFFSET -0.003700 21.199493 -0.826900
								CHANNELS 3 Xrotation Yrotation Zrotation
								JOINT Head
								{
									OFFSET 0.000000 20.442200 4.834800
									CHANNELS 3 Xrotation Yrotation Zrotation
									JOINT HeadTop_End
									{
										OFFSET 0.000000 34.668396 4.968400
										CHANNELS 3 Xrotation Yrotation Zrotation
										End Site
										{
											OFFSET 0 0 0
										}
									}
								}
							}
						}
						JOINT LeftShoulder_virtual
						{
							OFFSET 0.000000 0.000000 0.000000
							CHANNELS 3 Xrotation Yrotation Zrotation
							JOINT LeftShoulder
							{
								OFFSET 3.288150 8.794197 -1.372250
								CHANNELS 3 Xrotation Yrotation Zrotation
								JOINT LeftShoulder_split
								{
									OFFSET 3.288150 8.794197 -1.372250
									CHANNELS 3 Xrotation Yrotation Zrotation
									JOINT LeftArm
									{
										OFFSET 11.953299 -2.279007 -0.146200
										CHANNELS 3 Xrotation Yrotation Zrotation
										JOINT LeftForeArm
										{
											OFFSET 18.448900 0.000000 0.000000
											CHANNELS 3 Xrotation Yrotation Zrotation
											JOINT LeftHand
											{
												OFFSET 29.527798 0.000000 0.000000
												CHANNELS 3 Xrotation Yrotation Zrotation
												End Site
												{
													OFFSET 0 0 0
												}
											}
										}
									}
								}
							}
						}
						JOINT RightShoulder_virtual
						{
							OFFSET 0.000000 0.000000 0.000000
							CHANNELS 3 Xrotation Yrotation Zrotation
							JOINT RightShoulder
							{
								OFFSET -3.249400 8.794197 -1.372250
								CHANNELS 3 Xrotation Yrotation Zrotation
								JOINT RightShoulder_split
								{
									OFFSET -3.249400 8.794197 -1.372250
									CHANNELS 3 Xrotation Yrotation Zrotation
									JOINT RightArm
									{
										OFFSET -11.953299 -2.279007 -0.146200
										CHANNELS 3 Xrotation Yrotation Zrotation
										JOINT RightForeArm
										{
											OFFSET -18.448900 0.000000 0.000000
											CHANNELS 3 Xrotation Yrotation Zrotation
											JOINT RightHand
											{
												OFFSET -29.527802 0.000000 0.000000
												CHANNELS 3 Xrotation Yrotation Zrotation
												End Site
												{
													OFFSET 0 0 0
												}
											}
										}
									}
								}
							}
						}
					}
				}
			}
		}
	}
}
MOTION
Frames: 5
Frame Time: 0.03333333
11.940131 98.768890 -18.384090 0.000000 0.000000 0.000000 14.957259 -19.973671 -15.708573 -35.148857 -10.431120 12.294833 47.303643 17.469303 7.531279 -12.118521 19.799204 -14.964851 -8.968683 -3.737459 8.597393 0.000000 0.000000 0.000000 15.890092 -18.966660 -16.189304 -35.987502 5.982856 16.700907 -2.234296 -4.753272 -0.851887 16.706238 3.243019 8.745854 6.916725 -2.852322 -8.207277 0.000000 0.000000 0.000000 14.621803 -23.028348 -17.108832 14.784834 -7.831153 16.732734 9.425512 1.938614 7.519048 0.179663 -0.742769 0.069491 0.000000 0.000000 0.000000 14.086201 5.669267 6.465499 -18.286267 2.581162 20.371832 7.690561 -76.593857 -29.670605 0.000000 0.000000 0.000000 14.076996 3.103857 5.948848 1.940546 -18.872555 -13.524536 7.224185 -2.533765 -4.822580 -28.008808 -6.247553 -70.782289 14.278947 -24.533906 12.290537 0.000000 0.000000 0.000000 13.977953 3.658526 7.712880 5.074379 15.606094 11.701273 6.510943 11.445798 -3.727444 -3.825332 30.550166 42.677942 -11.337969 31.861781 -0.762025 0.000000 0.000000 0.000000 
11.771414 98.849007 -18.375095 0.000000 0.000000 0.000000 14.856623 -19.643598 -15.792606 -35.188284 -10.315183 12.498450 47.155602 17.336221 7.575382 -11.940497 19.328418 -15.211349 -8.995392 -3.724669 8.739847 0.000000 0.000000 0.000000 15.782108 -18.643850 -16.283506 -35.698035 6.096203 16.740744 -2.373445 -4.771434 -0.849564 16.690187 3.072660 8.641741 6.829471 -2.899819 -7.994117 0.000000 0.000000 0.000000 14.453471 -22.693486 -17.215615 14.838511 -7.834243 16.954234 9.232958 2.009641 7.557044 0.175377 -0.727086 0.067887 0.000000 0.000000 0.000000 13.949674 5.753267 6.534330 -17.950982 2.414449 20.385801 7.542476 -77.329353 -29.522151 0.000000 0.000000 0.000000 13.917793 3.209934 6.011330 1.921555 -18.770297 -13.724302 7.319686 -2.757286 -4.727062 -27.858906 -6.835860 -71.237575 14.188817 -24.757896 12.219367 0.000000 0.000000 0.000000 13.771670 3.700817 7.756866 5.124624 15.749892 11.325242 6.306484 11.402050 -3.635268 -2.948926 30.402661 42.746148 -11.308139 32.482976 -0.728293 0.000000 0.000000 0.000000 
11.591805 98.940849 -18.366268 0.000000 0.000000 0.000000 14.748593 -19.236241 -15.863635 -35.315527 -10.296066 12.680289 47.056882 17.121111 7.639440 -11.498226 18.762019 -15.641133 -9.201846 -3.738551 8.926236 0.000000 0.000000 0.000000 15.693671 -18.233345 -16.367787 -35.417007 6.219213 16.777226 -2.471424 -4.776911 -0.845539 16.628468 2.862823 8.525487 6.759192 -2.951834 -7.823832 0.000000 0.000000 0.000000 14.292572 -22.274872 -17.315578 14.867995 -7.842906 17.161730 9.035962 2.084165 7.606637 0.173672 -0.712276 0.066892 0.000000 0.000000 0.000000 13.811759 5.840334 6.614064 -17.609409 2.229201 20.415710 7.236415 -78.101629 -29.452411 0.000000 0.000000 0.000000 13.761543 3.322951 6.086109 1.910753 -18.654698 -13.918546 7.434590 -3.011761 -4.633715 -27.603139 -7.382073 -71.684946 14.088815 -24.946508 12.137429 0.000000 0.000000 0.000000 13.566215 3.744655 7.803027 5.173531 15.902280 10.929194 6.143572 11.345442 -3.556731 -2.161184 30.226196 42.912562 -11.260768 33.098274 -0.705074 0.000000 0.000000 0.000000 
11.401897 99.028580 -18.361385 0.000000 0.000000 0.000000 14.631245 -18.780367 -15.928278 -35.431255 -10.349494 12.808228 46.972819 16.974518 7.698786 -11.081899 18.253308 -16.010815 -9.325322 -3.733169 9.032790 0.000000 0.000000 0.000000 15.609330 -17.774929 -16.447186 -35.145432 6.340060 16.819812 -2.531948 -4.754089 -0.844671 16.514619 2.624737 8.401718 6.706100 -3.005414 -7.716388 0.000000 0.000000 0.000000 14.139771 -21.796629 -17.413446 14.859959 -7.859577 17.352500 8.837691 2.159051 7.671840 0.173516 -0.697474 0.066179 0.000000 0.000000 0.000000 13.675538 5.926848 6.708263 -17.247023 2.032049 20.444237 6.830756 -78.874328 -29.414275 0.000000 0.000000 0.000000 13.610501 3.440242 6.175869 1.912204 -18.514664 -14.099428 7.566215 -3.286108 -4.540011 -27.244986 -7.902707 -72.128246 13.983857 -25.076678 12.053204 0.000000 0.000000 0.000000 13.364039 3.786893 7.855262 5.226264 16.061644 10.503925 6.007012 11.283980 -3.474744 -1.481953 30.013852 43.196804 -11.198991 33.703780 -0.690582 0.000000 0.000000 0.000000 
11.203391 99.107384 -18.351147 0.000000 0.000000 0.000000 14.504851 -18.296369 -16.000782 -35.439727 -10.476906 12.844943 46.853476 16.982446 7.760139 -10.929659 17.933789 -16.207762 -9.207614 -3.680600 8.975724 0.000000 0.000000 0.000000 15.525370 -17.273765 -16.530566 -34.880516 6.443825 16.872968 -2.556867 -4.682741 -0.851802 16.382031 2.385267 8.308128 6.598068 -3.057478 -7.682906 0.000000 0.000000 0.000000 13.998918 -21.280405 -17.514453 14.803549 -7.885589 17.530155 8.639637 2.230057 7.754610 0.170498 -0.681977 0.064777 0.000000 0.000000 0.000000 13.543539 6.009294 6.818894 -16.848427 1.832860 20.454443 6.405735 -79.613744 -29.342325 0.000000 0.000000 0.000000 13.462056 3.558799 6.281751 1.930256 -18.345611 -14.260059 7.712479 -3.573929 -4.448185 -26.806911 -8.412279 -72.570801 13.876937 -25.143241 11.975132 0.000000 0.000000 0.000000 13.165431 3.823603 7.917747 5.288357 16.226305 10.042327 5.894534 11.215886 -3.391159 -0.932188 29.765869 43.618486 -11.127631 34.287123 -0.680790 0.000000 0.000000 0.000000 
